# Blender 5.0.1
# www.blender.org
mtllib woman_left_leg.mtl
o character_secretary.001
v 0.040897 0.448531 0.024942
v 0.013381 0.719759 0.054399
v 0.010038 0.733926 -0.107825
v 0.115884 0.454585 0.032995
v 0.158750 0.758891 0.065099
v 0.119747 0.470127 -0.050629
v 0.166590 0.755126 -0.074831
v 0.043464 0.121611 -0.041318
v 0.040314 0.121317 -0.083098
v 0.091268 0.123160 -0.043237
v 0.094418 0.122866 -0.092001
v 0.087452 0.741194 -0.096408
v 0.080942 0.446610 0.042147
v 0.085638 0.727996 0.075813
v 0.066076 0.120164 -0.101384
v 0.071242 0.125373 -0.031614
v 0.131287 0.345507 -0.082227
v 0.024398 0.306679 -0.074723
v 0.028118 0.299420 -0.015685
v 0.127567 0.335823 -0.016716
v 0.077444 0.291284 -0.002791
v 0.077444 0.326095 -0.114180
v 0.014593 0.649504 0.051171
v 0.013857 0.652543 -0.061297
v 0.158490 0.694627 -0.067012
v 0.156915 0.695447 0.056667
v 0.081745 0.678622 0.068707
v 0.082063 0.682448 -0.075194
v 0.038285 0.463381 -0.047478
v 0.117448 0.491257 0.030433
v 0.074453 0.505140 0.039770
v 0.077550 0.473751 -0.068038
v 0.032912 0.480448 0.022506
v 0.046637 0.409631 0.005605
v 0.114807 0.420297 0.012241
v 0.083187 0.398453 0.020184
v 0.082782 0.000358 0.115589
v 0.050174 0.050524 -0.064033
v 0.042080 0.085299 -0.100251
v 0.092746 0.050524 -0.064035
v 0.092519 0.085299 -0.100251
v 0.035931 0.000358 0.013247
v 0.035931 0.019352 0.031575
v 0.123809 0.000358 0.013247
v 0.123809 0.021802 0.033939
v 0.064499 0.085299 -0.111785
v 0.074903 0.043421 0.050794
v 0.046255 0.084068 -0.030014
v 0.098386 0.084068 -0.030014
v 0.070403 0.087058 -0.005735
v 0.081724 0.001494 -0.085841
v 0.090152 0.743379 -0.113845
v 0.176162 0.758521 -0.086524
v 0.167761 0.760995 0.078908
v 0.084627 0.727698 0.094116
v 0.064324 0.000962 -0.068907
v 0.081384 0.000962 -0.068908
v 0.064324 0.001228 -0.085841
vn -0.7765 -0.1307 0.6164
vn -0.7760 -0.0681 0.6270
vn -0.4700 -0.4009 -0.7863
vn -0.8042 -0.1734 -0.5684
vn 0.0911 -0.2377 -0.9671
vn 0.2050 -0.6422 -0.7386
vn 0.4981 -0.8367 -0.2274
vn 0.7888 -0.1987 -0.5817
vn 0.5492 -0.8085 0.2115
vn 0.7621 -0.1757 0.6232
vn -0.0302 -0.1352 0.9904
vn 0.1865 -0.5273 0.8289
vn -0.0704 0.1069 -0.9918
vn 0.8624 0.0664 -0.5018
vn 0.8497 0.0101 -0.5272
vn -0.0962 0.1449 -0.9848
vn -0.7958 -0.0860 0.5994
vn -0.9118 0.0496 -0.4076
vn -0.9216 0.0162 -0.3878
vn -0.8653 0.0063 0.5011
vn 0.8487 -0.1339 0.5117
vn 0.8929 0.0399 0.4486
vn 0.0620 -0.1859 0.9806
vn 0.0639 0.1251 0.9901
vn -0.8762 0.0038 -0.4819
vn -0.0629 0.0854 -0.9944
vn 0.8290 -0.1823 0.5288
vn 0.0349 -0.3109 0.9498
vn -0.8066 -0.1716 0.5657
vn 0.8465 0.0225 -0.5320
vn 0.7677 -0.1014 0.6327
vn -0.0543 -0.0997 0.9935
vn -0.8360 -0.1535 0.5268
vn -0.7724 -0.2367 0.5893
vn 0.7463 -0.1312 0.6526
vn -0.0307 -0.2289 0.9730
vn -0.9209 0.2121 0.3271
vn -0.8396 -0.0374 -0.5419
vn -0.9054 -0.4231 0.0359
vn 0.7120 -0.6596 -0.2408
vn 0.9224 0.2547 0.2904
vn 0.0291 -0.2284 0.9731
vn -0.6854 -0.7054 -0.1807
vn -0.0835 0.8057 0.5864
vn -0.9290 0.1416 0.3419
vn -0.0533 0.6782 0.7329
vn 0.9250 -0.3721 -0.0763
vn 0.9132 0.3357 0.2310
vn 0.5325 -0.6597 -0.5304
vn -0.4956 -0.7090 -0.5017
vn -0.0819 0.0159 -0.9965
vn 0.7806 -0.0031 -0.6250
vn 0.5298 -0.6730 0.5161
vn -0.4903 -0.6796 0.5457
vn 0.3411 -0.9399 -0.0142
vn 0.3739 -0.9266 -0.0410
vn 0.2309 -0.9716 -0.0521
vn 0.2016 -0.9742 -0.1017
vt 0.869482 0.760479
vt 0.872341 0.810432
vt 0.778044 0.810432
vt 0.799586 0.743790
vt 0.719972 0.768331
vt 0.715894 0.809888
vt 0.661630 0.814773
vt 0.668610 0.774930
vt 0.992257 0.764909
vt 0.992257 0.810432
vt 0.950664 0.810432
vt 0.943976 0.781022
vt 0.904744 0.779384
vt 0.911055 0.810432
vt 0.726294 0.531809
vt 0.688845 0.545249
vt 0.718335 0.407037
vt 0.737676 0.407037
vt 0.865324 0.524772
vt 0.821128 0.524032
vt 0.833070 0.410186
vt 0.864408 0.410186
vt 0.992257 0.545319
vt 0.943613 0.548365
vt 0.930031 0.410186
vt 0.967287 0.410186
vt 0.903696 0.520707
vt 0.898543 0.410186
vt 0.767220 0.523623
vt 0.757424 0.407037
vt 0.766168 0.748045
vt 0.767220 0.809743
vt 0.755083 0.623015
vt 0.725507 0.627919
vt 0.935434 0.607954
vt 0.906762 0.595403
vt 0.872763 0.600901
vt 0.992257 0.628780
vt 0.821128 0.628987
vt 0.695519 0.626506
vt 0.934804 0.657775
vt 0.903660 0.668977
vt 0.871525 0.652490
vt 0.877176 0.631623
vt 0.929730 0.634379
vt 0.906618 0.630845
vt 0.551087 0.565695
vt 0.519747 0.597245
vt 0.518805 0.567770
vt 0.633468 0.500827
vt 0.613277 0.500320
vt 0.576283 0.447025
vt 0.658686 0.432289
vt 0.702680 0.432163
vt 0.682287 0.483457
vt 0.574823 0.502282
vt 0.541153 0.504619
vt 0.574463 0.554639
vt 0.665684 0.386143
vt 0.686997 0.386081
vt 0.523869 0.505237
vt 0.601020 0.565075
vt 0.674623 0.563735
vt 0.684680 0.571115
vt 0.646529 0.621333
vt 0.636142 0.570957
vt 0.632025 0.605550
vt 0.681236 0.361166
vt 0.672696 0.361191
vt 0.672671 0.352712
vt 0.681383 0.352684
vt 0.623381 0.634758
vt 0.608785 0.618450
vt 0.587264 0.591402
vt 0.574839 0.586605
vt 0.558698 0.589982
vt 0.540875 0.606679
vt 0.527050 0.620413
vt 0.508759 0.606443
vt 0.430250 0.506366
vt 0.463230 0.501395
vt 0.467204 0.507105
vt 0.429874 0.514041
vt 0.464797 0.442986
vt 0.468966 0.438018
vt 0.487158 0.558307
vt 0.493450 0.550486
vt 0.431108 0.434358
vt 0.432276 0.427001
vt 0.668192 0.553473
s 1
usemtl secretary_mat
f 23/1/1 2/2/2 3/3/3 24/4/4
f 28/5/5 12/6/6 7/7/7 25/8/8
f 25/9/8 7/10/7 5/11/9 26/12/10
f 27/13/11 14/14/12 2/2/2 23/1/1
f 22/15/13 17/16/14 11/17/15 15/18/16
f 19/19/17 18/20/18 9/21/19 8/22/20
f 17/23/14 20/24/21 10/25/22 11/26/15
f 21/27/23 19/19/17 8/22/20 16/28/24
f 20/24/21 21/27/23 16/28/24 10/25/22
f 18/29/18 22/15/13 15/18/16 9/30/19
f 26/12/10 5/11/9 14/14/12 27/13/11
f 24/31/4 3/32/3 12/6/6 28/5/5
f 29/33/25 32/34/26 22/15/13 18/29/18
f 35/35/27 36/36/28 21/27/23 20/24/21
f 36/36/28 34/37/29 19/19/17 21/27/23
f 6/38/30 35/35/27 20/24/21 17/23/14
f 34/37/29 29/39/25 18/20/18 19/19/17
f 32/34/26 6/40/30 17/16/14 22/15/13
f 29/33/25 24/31/4 28/5/5 32/34/26
f 30/41/31 26/12/10 27/13/11 31/42/32
f 31/42/32 27/13/11 23/1/1 33/43/33
f 6/38/30 25/9/8 26/12/10 30/41/31
f 32/34/26 28/5/5 25/8/8 6/40/30
f 33/43/33 23/1/1 24/4/4 29/39/25
f 1/44/34 33/43/33 29/39/25
f 6/38/30 30/41/31 4/45/35
f 13/46/36 31/42/32 33/43/33 1/44/34
f 4/45/35 30/41/31 31/42/32 13/46/36
f 1/44/34 29/39/25 34/37/29
f 6/38/30 4/45/35 35/35/27
f 13/46/36 1/44/34 34/37/29 36/36/28
f 4/45/35 13/46/36 36/36/28 35/35/27
f 48/47/37 39/48/38 38/49/39
f 44/50/40 45/51/41 37/52/42
f 42/53/43 44/54/40 37/55/42
f 47/56/44 43/57/45 37/52/42
f 50/58/46 48/47/37 43/57/45 47/56/44
f 38/59/39 40/60/47 44/54/40 42/53/43
f 37/52/42 43/57/45 42/61/43
f 49/62/48 50/58/46 47/56/44 45/51/41
f 45/51/41 47/56/44 37/52/42
f 51/63/49 58/64/50 46/65/51
f 40/66/47 41/67/52 49/62/48
f 57/68/53 56/69/54 58/70/50 51/71/49
f 40/66/47 49/62/48 45/51/41 44/50/40
f 42/61/43 43/57/45 48/47/37 38/49/39
f 15/72/16 11/73/15 41/67/52 46/65/51
f 11/73/15 10/74/22 49/62/48 41/67/52
f 10/74/22 16/75/24 50/58/46 49/62/48
f 16/75/24 8/76/20 48/47/37 50/58/46
f 8/76/20 9/77/19 39/48/38 48/47/37
f 9/77/19 15/78/16 46/79/51 39/48/38
f 14/80/12 5/81/9 54/82/55 55/83/56
f 5/81/9 7/84/7 53/85/57 54/82/55
f 58/86/50 56/87/54 38/49/39 39/48/38
f 7/84/7 12/88/6 52/89/58 53/85/57
f 40/60/47 38/59/39 56/69/54 57/68/53
f 40/66/47 57/90/53 51/63/49 41/67/52
f 58/86/50 39/48/38 46/79/51
f 41/67/52 51/63/49 46/65/51
