# Blender 5.0.1
# www.blender.org
mtllib woman_left_arm.mtl
o character_secretary.001
v 0.115747 1.345836 -0.015164
v 0.440766 0.914158 0.007167
v 0.415827 0.898742 0.003484
v 0.407948 0.899716 0.026979
v 0.406552 0.905275 0.046420
v 0.433661 0.914901 0.050783
v 0.442576 0.914749 0.030600
v 0.414601 0.939494 -0.001958
v 0.401909 0.923780 0.003016
v 0.398856 0.920862 0.022588
v 0.399285 0.927137 0.041473
v 0.413491 0.944668 0.037487
v 0.418473 0.947550 0.017764
v 0.389038 0.979280 -0.019932
v 0.373233 0.964985 -0.018056
v 0.365752 0.963729 0.004780
v 0.368647 0.973472 0.025456
v 0.385131 0.988790 0.023958
v 0.394110 0.989565 0.001874
v 0.132998 1.286377 -0.002917
v 0.115705 1.365630 -0.060299
v 0.430582 0.852006 0.061839
v 0.450321 0.860513 0.068341
v 0.443608 0.869821 -0.000095
v 0.462292 0.875292 0.003104
v 0.461571 0.873512 0.033230
v 0.437119 0.856721 0.034495
v 0.456208 0.794679 -0.000976
v 0.463788 0.794073 0.000541
v 0.462254 0.773980 0.033103
v 0.453608 0.774514 0.031412
v 0.458992 0.778914 0.070390
v 0.449994 0.779642 0.067849
v 0.462752 0.816259 0.073044
v 0.471543 0.817766 0.034054
v 0.455929 0.815291 0.032480
v 0.450524 0.813609 0.068362
v 0.471353 0.826649 0.000327
v 0.458986 0.824484 -0.001937
v 0.440408 0.884744 0.065139
v 0.401399 0.878976 0.059903
v 0.404207 0.870711 0.039799
v 0.426782 0.875782 0.023686
v 0.422148 0.809619 0.077607
v 0.417739 0.808366 0.086625
v 0.407952 0.805978 0.081128
v 0.414141 0.806801 0.072291
v 0.424338 0.856366 0.075166
v 0.403282 0.853274 0.069681
v 0.408147 0.848064 0.054158
v 0.441264 0.907436 0.008345
v 0.420689 0.894599 0.001640
v 0.414777 0.894928 0.020994
v 0.410721 0.899909 0.046958
v 0.434580 0.911640 0.049757
v 0.441570 0.910469 0.030084
v 0.117379 1.348277 -0.103480
v 0.177181 1.347816 -0.103468
v 0.189359 1.357292 -0.064409
v 0.173038 1.346705 -0.015729
v 0.389038 0.979280 -0.019932
v 0.373233 0.964985 -0.018056
v 0.365752 0.963729 0.004780
v 0.368647 0.973472 0.025456
v 0.385131 0.988790 0.023958
v 0.394110 0.989565 0.001874
v 0.318477 1.090761 -0.078333
v 0.298447 1.066956 -0.076185
v 0.278270 1.052893 -0.029894
v 0.295356 1.067883 0.012893
v 0.326588 1.101974 0.008287
v 0.334783 1.124576 -0.035774
v 0.226848 1.244943 -0.100578
v 0.178081 1.228273 -0.108722
v 0.174618 1.227074 -0.055790
v 0.183083 1.234161 -0.004218
v 0.226571 1.256844 -0.012801
v 0.248282 1.242895 -0.055806
v 0.134486 1.271061 -0.114043
v 0.275120 1.112607 -0.003800
v 0.255834 1.112586 -0.036806
v 0.257484 1.112075 -0.070643
v 0.305301 1.135233 -0.071463
v 0.307359 1.142756 -0.040024
v 0.300135 1.124432 -0.003846
v 0.363782 0.963637 -0.032659
v 0.389546 0.986320 -0.037404
v 0.351868 0.963289 0.001486
v 0.364814 0.974935 0.028625
v 0.385797 0.996764 0.032613
v 0.402746 1.000356 -0.002442
v 0.355742 0.982652 -0.037127
v 0.336321 0.991041 -0.007518
v 0.347629 1.002149 0.018613
v 0.367435 1.023113 0.020003
v 0.380016 1.029749 -0.011234
v 0.375933 1.001819 -0.040498
v 0.289283 1.157632 -0.077407
v 0.242226 1.134403 -0.077960
vn 0.8208 -0.2882 -0.4931
vn -0.0826 -0.7880 -0.6101
vn -0.4542 -0.5052 -0.7338
vn 0.6059 0.1283 -0.7852
vn -0.3041 -0.9519 0.0383
vn -0.8486 -0.5286 -0.0216
vn -0.3420 -0.6511 0.6775
vn -0.6240 -0.1408 0.7686
vn 0.6146 -0.1292 0.7782
vn 0.4097 0.5017 0.7619
vn 0.9648 -0.2059 0.1639
vn 0.8425 0.5386 0.0044
vn -0.2830 -0.5801 -0.7638
vn 0.6314 0.0322 -0.7748
vn -0.8039 -0.5947 -0.0026
vn 0.4455 0.5131 0.7337
vn -0.5647 -0.1245 0.8158
vn 0.8652 0.4995 -0.0439
vn 0.7279 0.2982 -0.6175
vn 0.7866 0.0256 -0.6169
vn -0.4910 -0.0997 -0.8654
vn -0.4100 -0.1984 -0.8902
vn 0.9272 0.3228 0.1900
vn 0.9945 -0.0075 0.1044
vn -0.5602 -0.3553 -0.7483
vn 0.5864 -0.4795 -0.6529
vn 0.5703 -0.8162 -0.0932
vn -0.6499 -0.7202 -0.2426
vn 0.3759 -0.6037 0.7030
vn -0.7255 -0.5065 0.4659
vn -0.9754 -0.1572 -0.1547
vn -0.6941 -0.5954 -0.4047
vn -0.8018 -0.1210 0.5853
vn 0.1780 -0.8422 0.5090
vn 0.5683 0.1326 0.8121
vn 0.4041 0.3882 0.8282
vn 0.5248 0.0129 0.8512
vn -0.6320 -0.5720 -0.5229
vn -0.8056 -0.2893 -0.5170
vn 0.4274 0.9022 0.0586
vn 0.1707 0.8630 0.4756
vn -0.8299 0.2385 0.5044
vn -0.7027 0.6557 0.2763
vn -0.8505 0.3611 -0.3826
vn -0.6928 0.1950 -0.6943
vn 0.2510 0.8144 -0.5233
vn 0.7986 -0.5867 -0.1343
vn 0.3167 -0.4312 0.8449
vn -0.6438 -0.6237 0.4434
vn -0.1775 -0.7784 -0.6022
vn 0.1591 0.1614 0.9740
vn -0.8704 0.0785 0.4860
vn -0.5486 -0.5582 -0.6225
vn 0.8706 0.4918 -0.0104
vn 0.5786 0.8150 -0.0314
vn 0.3508 0.6278 0.6948
vn 0.5470 0.3424 0.7639
vn -0.3246 -0.3137 -0.8923
vn 0.0345 0.6793 -0.7331
vn 0.3635 0.5867 -0.7236
vn -0.2813 -0.1890 0.9408
vn -0.4120 -0.3354 0.8472
vn 0.0625 0.9979 0.0158
vn 0.0443 0.6986 0.7141
vn 0.5114 0.0786 -0.8557
vn -0.3770 -0.4823 -0.7907
vn -0.3615 -0.4049 -0.8399
vn 0.4100 0.1474 -0.9001
vn -0.8195 -0.5682 0.0745
vn -0.8388 -0.5423 0.0480
vn -0.5465 -0.1505 0.8238
vn -0.5188 -0.1318 0.8447
vn 0.3439 0.4287 0.8354
vn 0.3543 0.4763 0.8047
vn 0.8576 0.5114 -0.0546
vn 0.7842 0.6201 -0.0227
vn -0.5641 -0.4295 -0.7052
vn 0.5423 0.3219 -0.7761
vn -0.8563 -0.5061 0.1030
vn -0.5260 -0.1056 0.8439
vn 0.2882 0.4974 0.8183
vn 0.7917 0.6105 0.0233
vn -0.4693 -0.5330 -0.7040
vn -0.7775 -0.6216 0.0960
vn 0.5997 0.1840 -0.7788
vn 0.5599 0.1844 -0.8078
vn -0.3880 -0.4764 -0.7890
vn 0.8494 -0.5031 0.1595
vn 0.7597 -0.6271 -0.1721
vn 0.6751 -0.2152 -0.7057
vn 0.9909 0.1306 0.0335
vn 0.6963 -0.5397 0.4732
vn 0.4818 0.0640 0.8740
vn 0.2412 -0.8025 0.5457
vn -0.2280 -0.5170 0.8251
vn 0.0065 -0.9726 0.2324
vn -0.5622 -0.8091 0.1712
vn 0.3437 -0.9272 -0.1491
vn -0.1361 -0.7991 -0.5856
vt 0.758609 0.055568
vt 0.758609 0.073870
vt 0.730750 0.075009
vt 0.724954 0.058189
vt 0.758609 0.087858
vt 0.734244 0.091097
vt 0.758609 0.106448
vt 0.733668 0.106448
vt 0.758609 0.006687
vt 0.758609 0.024227
vt 0.730365 0.024748
vt 0.736870 0.006687
vt 0.758609 0.039551
vt 0.725932 0.040355
vt 0.688416 0.073242
vt 0.688416 0.057462
vt 0.688416 0.090902
vt 0.688416 0.021025
vt 0.688416 0.006687
vt 0.688416 0.038770
vt 0.656908 0.188393
vt 0.654395 0.154980
vt 0.645521 0.153819
vt 0.643235 0.189800
vt 0.677234 0.187502
vt 0.677398 0.148762
vt 0.650145 0.126535
vt 0.653791 0.131227
vt 0.677481 0.117550
vt 0.675582 0.111981
vt 0.704062 0.121343
vt 0.703607 0.114218
vt 0.644439 0.308001
vt 0.644584 0.268358
vt 0.673652 0.262487
vt 0.675747 0.301544
vt 0.703592 0.262259
vt 0.699613 0.297796
vt 0.704147 0.180569
vt 0.701864 0.199808
vt 0.704656 0.147837
vt 0.665405 0.320385
vt 0.686104 0.330357
vt 0.674672 0.228555
vt 0.704613 0.234305
vt 0.713563 0.146811
vt 0.711184 0.121103
vt 0.646934 0.243765
vt 0.647784 0.130601
vt 0.675819 0.219416
vt 0.691896 0.222187
vt 0.725499 0.213739
vt 0.711722 0.229353
vt 0.736614 0.223601
vt 0.721038 0.240699
vt 0.665883 0.345464
vt 0.647225 0.339772
vt 0.636607 0.218880
vt 0.658489 0.219456
vt 0.759891 0.163554
vt 0.754801 0.168602
vt 0.760677 0.174225
vt 0.765321 0.168124
vt 0.724127 0.188256
vt 0.736437 0.198912
vt 0.745874 0.206660
vt 0.764934 0.180615
vt 0.735185 0.299867
vt 0.736633 0.307488
vt 0.702508 0.316189
vt 0.720208 0.177929
vt 0.688416 0.106448
vt 0.749071 0.164884
vt 0.766227 0.052108
vt 0.765019 0.058891
vt 0.756210 0.058891
vt 0.755784 0.050088
vt 0.764975 0.044984
vt 0.756818 0.043500
vt 0.741481 0.269633
vt 0.738699 0.254063
vt 0.715993 0.254189
vt 0.711914 0.270918
vt 0.738973 0.288823
vt 0.715914 0.288823
vt 0.922229 0.269517
vt 0.919536 0.344298
vt 0.895496 0.345619
vt 0.889900 0.283687
vt 0.987466 0.337163
vt 0.949801 0.377199
vt 0.936939 0.347302
vt 0.857917 0.337482
vt 0.857917 0.287935
vt 0.915189 0.384600
vt 0.879444 0.373516
vt 0.938259 0.051510
vt 0.959368 0.038182
vt 0.987466 0.129837
vt 0.960496 0.139604
vt 0.784290 0.048679
vt 0.809712 0.058395
vt 0.803673 0.121925
vt 0.765995 0.127702
vt 0.832438 0.056344
vt 0.838731 0.119143
vt 0.857917 0.062554
vt 0.882652 0.066967
vt 0.887656 0.136638
vt 0.857917 0.129136
vt 0.910244 0.068520
vt 0.920000 0.152037
vt 0.987466 0.181361
vt 0.947713 0.175558
vt 0.805032 0.169688
vt 0.778299 0.172323
vt 0.833620 0.158941
vt 0.886928 0.165349
vt 0.857917 0.169143
vt 0.919468 0.176958
vt 0.774418 0.194507
vt 0.843544 0.281324
vt 0.800915 0.284911
vt 0.949045 0.197508
vt 0.954238 0.283072
vt 0.758106 0.287766
vt 0.758106 0.337216
vt 0.848964 0.339786
vt 0.987466 0.203349
vt 0.987466 0.295786
vt 0.901718 0.030500
vt 0.923835 0.025175
vt 0.931921 0.037160
vt 0.905415 0.040340
vt 0.880540 0.034514
vt 0.879946 0.042010
vt 0.857917 0.033998
vt 0.857917 0.037946
vt 0.814112 0.025607
vt 0.831908 0.028202
vt 0.833733 0.031814
vt 0.811604 0.034856
vt 0.795397 0.023186
vt 0.786411 0.033020
vt 0.938308 0.011125
vt 0.953381 0.017715
s 1
usemtl secretary_mat
f 51/1/1 52/2/2 9/3/3 8/4/4
f 52/2/2 53/5/5 10/6/6 9/3/3
f 53/5/5 54/7/7 11/8/8 10/6/6
f 54/9/7 55/10/9 12/11/10 11/12/8
f 55/10/9 56/13/11 13/14/12 12/11/10
f 56/13/11 51/1/1 8/4/4 13/14/12
f 8/4/4 9/3/3 15/15/13 14/16/14
f 9/3/3 10/6/6 16/17/15 15/15/13
f 11/12/8 12/11/10 18/18/16 17/19/17
f 12/11/10 13/14/12 19/20/18 18/18/16
f 13/14/12 8/4/4 14/16/14 19/20/18
f 25/21/19 38/22/20 39/23/21 24/24/22
f 26/25/23 35/26/24 38/22/20 25/21/19
f 28/27/25 29/28/26 30/29/27 31/30/28
f 31/30/28 30/29/27 32/31/29 33/32/30
f 24/33/22 39/34/21 36/35/31 27/36/32
f 27/36/32 36/35/31 37/37/33 22/38/34
f 23/39/35 26/25/23 40/40/36
f 23/39/35 34/41/37 35/26/24 26/25/23
f 24/33/22 27/36/32 43/42/38
f 27/36/32 42/43/39 43/42/38
f 37/37/33 36/35/31 31/44/28 33/45/30
f 34/41/37 37/46/33 33/47/30 32/31/29
f 39/34/21 28/48/25 31/44/28 36/35/31
f 38/22/20 29/28/26 28/49/25 39/23/21
f 35/26/24 30/29/27 29/28/26 38/22/20
f 40/40/36 26/25/23 7/50/40 6/51/41
f 41/52/42 40/40/36 6/51/41 5/53/43
f 42/54/39 41/52/42 5/53/43 4/55/44
f 43/42/38 42/43/39 4/56/44
f 24/33/22 43/42/38 4/56/44 3/57/45
f 3/58/45 2/59/46 25/21/19 24/24/22
f 26/25/23 25/21/19 2/59/46 7/50/40
f 44/60/47 45/61/48 46/62/49 47/63/50
f 45/61/48 48/64/51 49/65/52 46/62/49
f 50/66/53 47/67/50 46/62/49 49/65/52
f 22/38/34 44/68/47 47/69/50 50/70/53
f 35/26/24 34/41/37 32/31/29 30/29/27
f 40/40/36 41/52/42 49/65/52 48/64/51
f 23/39/35 40/40/36 48/64/51 22/71/34
f 41/52/42 42/54/39 50/66/53 49/65/52
f 27/36/32 22/38/34 50/70/53
f 11/8/8 17/72/17 16/17/15 10/6/6
f 48/64/51 45/61/48 44/73/47 22/71/34
f 22/71/34 37/46/33 34/41/37 23/39/35
f 56/74/11 55/75/9 54/76/7 53/77/5
f 51/78/1 56/74/11 53/77/5 52/79/2
f 4/80/44 5/81/43 6/82/41 7/83/40
f 3/84/45 4/80/44 7/83/40 2/85/46
f 42/43/39 27/36/32 50/70/53
f 78/86/54 59/87/55 60/88/56 77/89/57
f 79/90/58 57/91/59 58/92/60
f 20/93/61 76/94/62 77/89/57 60/88/56
f 57/91/59 21/95/63 59/87/55 58/92/60
f 21/95/63 1/96/64 60/88/56 59/87/55
f 97/97/65 92/98/66 68/99/67 67/100/68
f 92/101/66 93/102/69 69/103/70 68/104/67
f 93/102/69 94/105/71 70/106/72 69/103/70
f 94/107/71 95/108/73 71/109/74 70/110/72
f 95/108/73 96/111/75 72/112/76 71/109/74
f 96/111/75 97/97/65 67/100/68 72/112/76
f 67/100/68 68/99/67 82/113/77 83/114/78
f 68/104/67 69/103/70 81/115/79 82/116/77
f 69/103/70 70/106/72 80/117/80 81/115/79
f 70/110/72 71/109/74 85/118/81 80/119/80
f 71/109/74 72/112/76 84/120/82 85/118/81
f 72/112/76 67/100/68 83/114/78 84/120/82
f 82/116/77 81/115/79 99/121/83
f 81/115/79 80/117/80 76/122/62 75/123/84
f 80/119/80 85/118/81 77/89/57 76/94/62
f 85/118/81 84/120/82 78/86/54 77/89/57
f 84/120/82 98/124/85 73/125/86 78/86/54
f 74/126/87 75/123/84 79/127/58
f 75/123/84 76/122/62 20/128/61
f 83/114/78 82/113/77 99/129/83 98/124/85
f 73/125/86 58/92/60 59/87/55 78/86/54
f 1/96/64 20/93/61 60/88/56
f 79/127/58 75/123/84 20/128/61
f 74/130/87 79/90/58 58/92/60 73/125/86
f 66/131/88 61/132/89 87/133/90 91/134/91
f 65/135/92 66/131/88 91/134/91 90/136/93
f 64/137/94 65/135/92 90/136/93 89/138/95
f 63/139/96 64/140/94 89/141/95 88/142/97
f 62/143/98 63/139/96 88/142/97 86/144/99
f 61/132/89 62/145/98 86/146/99 87/133/90
f 91/134/91 87/133/90 97/97/65 96/111/75
f 90/136/93 91/134/91 96/111/75 95/108/73
f 89/138/95 90/136/93 95/108/73 94/107/71
f 88/142/97 89/141/95 94/105/71 93/102/69
f 86/144/99 88/142/97 93/102/69 92/101/66
f 87/133/90 86/146/99 92/98/66 97/97/65
f 81/115/79 75/123/84 74/126/87 99/121/83
f 99/129/83 74/130/87 73/125/86 98/124/85
f 98/124/85 84/120/82 83/114/78
