# Blender 5.0.1
# www.blender.org
mtllib woman_head.mtl
o character_secretary.001
v 0.000000 1.433901 0.044096
v 0.038232 1.457417 0.020593
v 0.068256 1.565351 0.005445
v 0.000000 1.531567 0.049595
v 0.000000 1.561250 0.051036
v 0.060437 1.621270 0.014091
v 0.000000 1.627018 0.036559
v 0.069424 1.495319 -0.055902
v 0.040379 1.446904 -0.023642
v 0.094897 1.554229 -0.055318
v 0.067561 1.637107 -0.016212
v 0.000000 1.433030 -0.001371
v 0.059879 1.490384 -0.118512
v 0.047407 1.455738 -0.079995
v 0.000000 1.488492 -0.129762
v 0.000000 1.456383 -0.094716
v 0.062518 1.551268 -0.131452
v 0.000000 1.552027 -0.149050
v 0.062518 1.608607 -0.125056
v 0.000000 1.622160 -0.140110
v 0.000000 1.651312 -0.015854
v 0.031067 1.524498 0.034300
v 0.019335 1.442582 0.036861
v 0.033825 1.570006 0.041994
v 0.031528 1.625594 0.030588
v 0.000000 1.506013 0.070412
v 0.005496 1.532372 0.046248
v 0.005317 1.507930 0.066712
v 0.000000 1.492321 0.050634
v 0.010865 1.529454 0.039947
v 0.014627 1.497162 0.046552
v 0.033813 1.559324 0.032261
v 0.000000 1.551337 0.048215
v 0.064664 1.555595 0.012618
v 0.027023 1.496871 0.040279
v 0.055596 1.493517 0.016375
v 0.023194 1.473949 0.043911
v 0.000000 1.474723 0.053006
v 0.031216 1.649657 -0.015891
v 0.031216 1.620803 -0.136712
v 0.000000 1.652507 -0.085688
v 0.062583 1.636649 -0.081063
v 0.031216 1.651001 -0.084008
v 0.007061 1.552172 0.045768
v 0.008447 1.563037 0.050445
v 0.063840 1.522201 0.013987
v 0.077076 1.507090 0.000231
v 0.097454 1.501127 -0.014869
v 0.070553 1.410504 0.007809
v 0.100807 1.555977 -0.016488
v 0.082381 1.614392 -0.012133
v 0.086593 1.611612 -0.052466
v 0.086630 1.583336 -0.096767
v 0.078111 1.492494 -0.080156
v 0.091311 1.551167 -0.089222
v 0.008746 1.545241 -0.130667
v 0.000000 1.541842 -0.129800
v 0.008746 1.552039 -0.132401
v 0.000000 1.555438 -0.133268
v 0.000000 1.366047 -0.173512
v 0.000000 1.422919 -0.157148
v 0.000000 1.516378 -0.144635
v 0.022683 1.421756 -0.172062
v 0.015920 1.522498 -0.152620
v 0.000000 1.540049 -0.173987
v 0.000000 1.424404 -0.230243
v 0.016037 1.533790 -0.165331
v 0.023075 1.426367 -0.210984
v 0.000000 1.463477 -0.145589
v 0.023918 1.466976 -0.158716
v 0.000000 1.487947 -0.211009
v 0.024208 1.484172 -0.195135
v -0.038232 1.457417 0.020593
v -0.068256 1.565351 0.005445
v -0.060437 1.621270 0.014091
v -0.069424 1.495319 -0.055902
v -0.040379 1.446904 -0.023642
v -0.094897 1.554229 -0.055318
v -0.067561 1.637107 -0.016212
v -0.059879 1.490384 -0.118512
v -0.047407 1.455738 -0.079995
v -0.062518 1.551268 -0.131452
v -0.062518 1.608607 -0.125056
v -0.031067 1.524498 0.034300
v -0.019335 1.442582 0.036861
v -0.033825 1.570006 0.041994
v -0.031528 1.625594 0.030588
v -0.005496 1.532372 0.046248
v -0.005317 1.507930 0.066712
v -0.010865 1.529454 0.039947
v -0.014627 1.497162 0.046552
v -0.033813 1.559324 0.032261
v -0.064664 1.555595 0.012618
v -0.027023 1.496871 0.040279
v -0.055596 1.493517 0.016375
v -0.023194 1.473949 0.043911
v -0.031216 1.649657 -0.015891
v -0.031216 1.620803 -0.136712
v -0.062583 1.636649 -0.081063
v -0.031216 1.651001 -0.084008
v -0.007061 1.552172 0.045768
v -0.008447 1.563037 0.050445
v -0.063840 1.522201 0.013987
v -0.077076 1.507090 0.000231
v -0.097454 1.501127 -0.014869
v -0.070553 1.410504 0.007809
v -0.100807 1.555977 -0.016488
v -0.082381 1.614392 -0.012133
v -0.086593 1.611612 -0.052466
v -0.086630 1.583336 -0.096767
v -0.078111 1.492494 -0.080156
v -0.091311 1.551167 -0.089222
v -0.008746 1.545241 -0.130667
v -0.008746 1.552039 -0.132401
v -0.022683 1.421756 -0.172062
v -0.015920 1.522498 -0.152620
v -0.016037 1.533790 -0.165331
v -0.023075 1.426367 -0.210984
v -0.023918 1.466976 -0.158716
v -0.024208 1.484172 -0.195135
vn 0.4741 0.0381 0.8797
vn 0.8593 -0.0664 0.5072
vn 0.6173 -0.0526 0.7850
vn 0.5260 -0.1974 0.8273
vn 0.4953 0.0707 0.8658
vn 0.5322 -0.0051 0.8466
vn -0.0000 -0.3600 0.9330
vn -0.0000 -0.0805 0.9968
vn 0.5388 -0.1184 0.8341
vn 0.4824 -0.0894 0.8714
vn 0.6345 0.1139 0.7645
vn 0.6251 0.4343 0.6485
vn 0.3448 0.5629 0.7512
vn 0.8396 -0.2305 0.4918
vn 0.7534 -0.5458 0.3669
vn 0.7895 -0.5979 0.1386
vn 0.8579 -0.5119 -0.0431
vn -0.0000 -0.9952 0.0977
vn 0.5651 -0.6359 0.5256
vn 0.8959 -0.4209 -0.1420
vn 0.6377 -0.7143 -0.2884
vn 0.5382 -0.4738 -0.6970
vn -0.0000 -0.7545 -0.6563
vn -0.0000 -0.5179 -0.8555
vn -0.0000 -0.0891 -0.9960
vn 0.5741 -0.0941 -0.8134
vn -0.0000 0.5523 -0.8337
vn 0.2730 0.5346 -0.7998
vn 0.2375 0.9404 -0.2432
vn -0.0000 0.9678 -0.2518
vn -0.0000 0.9726 0.2326
vn 0.2136 0.9493 0.2306
vn -0.0000 -0.7759 0.6309
vn -0.0000 -0.1047 0.9945
vn 0.2998 -0.1318 0.9449
vn -0.0000 0.6064 0.7951
vn -0.0000 0.4126 0.9109
vn 0.6762 0.1762 0.7153
vn 0.4005 -0.2228 0.8888
vn -0.0000 -0.1630 0.9866
vn -0.0000 -0.2260 0.9741
vn 0.6647 0.0104 0.7471
vn 0.6325 0.0930 0.7689
vn 0.6381 0.3988 -0.6587
vn 0.6196 0.7477 -0.2390
vn 0.9050 0.4134 -0.1009
vn 0.9079 0.2009 -0.3678
vn 0.5845 0.7841 0.2088
vn 0.8701 0.3607 0.3358
vn -0.3044 -0.1360 0.9428
vn -0.1143 -0.9416 0.3169
vn 0.9597 -0.2101 0.1869
vn 0.9244 0.0849 0.3719
vn 0.9948 -0.0314 -0.0964
vn 0.9598 -0.0869 -0.2669
vn -0.0000 -0.2183 -0.9759
vn 0.8542 -0.1851 -0.4858
vn -0.0000 -0.9722 0.2341
vn 0.8791 -0.2478 0.4072
vn 0.7737 0.6167 -0.1451
vn 0.8665 -0.1624 0.4720
vn 0.8821 -0.0377 0.4696
vn 0.8256 0.4928 -0.2749
vn -0.0000 0.9276 -0.3737
vn -0.0000 0.7727 -0.6348
vn -0.0000 -0.5573 0.8303
vn -0.0000 -0.2728 0.9621
vn -0.0000 -0.1607 0.9870
vn 0.8517 -0.0582 0.5209
vn -0.0000 0.4246 -0.9054
vn 0.8771 0.2438 -0.4138
vn -0.0000 -0.2822 0.9593
vn -0.4741 0.0381 0.8797
vn -0.5260 -0.1974 0.8273
vn -0.6173 -0.0526 0.7850
vn -0.8593 -0.0664 0.5072
vn -0.4953 0.0707 0.8658
vn -0.5388 -0.1184 0.8341
vn -0.5322 -0.0051 0.8466
vn -0.4824 -0.0894 0.8714
vn -0.3448 0.5629 0.7512
vn -0.6251 0.4343 0.6485
vn -0.6345 0.1139 0.7645
vn -0.8396 -0.2305 0.4918
vn -0.8579 -0.5119 -0.0431
vn -0.7895 -0.5979 0.1386
vn -0.7534 -0.5458 0.3669
vn -0.5651 -0.6359 0.5256
vn -0.8959 -0.4209 -0.1420
vn -0.5382 -0.4738 -0.6970
vn -0.6377 -0.7143 -0.2884
vn -0.5741 -0.0941 -0.8134
vn -0.2730 0.5346 -0.7998
vn -0.2375 0.9404 -0.2432
vn -0.2136 0.9493 0.2306
vn -0.2998 -0.1318 0.9449
vn -0.4005 -0.2228 0.8888
vn -0.6762 0.1762 0.7153
vn -0.6647 0.0104 0.7471
vn -0.6325 0.0930 0.7689
vn -0.6381 0.3988 -0.6587
vn -0.9079 0.2009 -0.3678
vn -0.9050 0.4134 -0.1009
vn -0.6196 0.7477 -0.2390
vn -0.5845 0.7841 0.2088
vn -0.8701 0.3607 0.3358
vn 0.3044 -0.1360 0.9428
vn -0.9597 -0.2101 0.1869
vn 0.1143 -0.9416 0.3169
vn -0.9244 0.0849 0.3719
vn -0.9948 -0.0314 -0.0964
vn -0.9598 -0.0869 -0.2669
vn -0.8542 -0.1851 -0.4858
vn -0.8791 -0.2478 0.4072
vn -0.7737 0.6167 -0.1451
vn -0.8256 0.4928 -0.2749
vn -0.8821 -0.0377 0.4696
vn -0.8665 -0.1624 0.4720
vn -0.8517 -0.0582 0.5209
vn -0.8771 0.2438 -0.4138
vt 0.220641 0.834445
vt 0.282711 0.830952
vt 0.292082 0.883932
vt 0.225492 0.888371
vt 0.211046 0.790314
vt 0.189589 0.790624
vt 0.165320 0.782961
vt 0.165067 0.756582
vt 0.202669 0.754714
vt 0.216662 0.908336
vt 0.293233 0.900536
vt 0.270376 0.987984
vt 0.217303 0.992248
vt 0.031479 0.638041
vt 0.040691 0.578811
vt 0.110022 0.574056
vt 0.152845 0.676746
vt 0.074476 0.509700
vt 0.015837 0.542144
vt 0.498421 0.865228
vt 0.529653 0.833955
vt 0.531192 0.878370
vt 0.578716 0.834356
vt 0.579188 0.879361
vt 0.579735 0.931470
vt 0.527978 0.927471
vt 0.580380 0.992952
vt 0.550787 0.991739
vt 0.811750 0.937316
vt 0.784840 0.939325
vt 0.784555 0.878110
vt 0.812660 0.878465
vt 0.005046 0.509700
vt 0.166371 0.892549
vt 0.178591 0.895352
vt 0.167337 0.993207
vt 0.243162 0.723559
vt 0.199671 0.703282
vt 0.165898 0.843183
vt 0.175785 0.845581
vt 0.178129 0.877362
vt 0.166218 0.876557
vt 0.165551 0.806996
vt 0.170070 0.807760
vt 0.188480 0.843012
vt 0.262299 0.784892
vt 0.035107 0.686342
vt 0.164442 0.691503
vt 0.851945 0.985194
vt 0.842375 0.936396
vt 0.878082 0.912225
vt 0.893466 0.964212
vt 0.816303 0.828733
vt 0.846944 0.844861
vt 0.846772 0.878532
vt 0.784300 0.823334
vt 0.816648 0.994205
vt 0.785111 0.997452
vt 0.871793 0.871177
vt 0.520402 0.977909
vt 0.332463 0.809714
vt 0.356624 0.662016
vt 0.372492 0.809020
vt 0.438260 0.805362
vt 0.332452 0.749064
vt 0.246107 0.684531
vt 0.280816 0.776030
vt 0.363177 0.888562
vt 0.302412 0.881475
vt 0.421499 0.895857
vt 0.290533 0.825354
vt 0.036897 0.739562
vt 0.400752 0.983749
vt 0.336241 0.976781
vt 0.324962 0.979836
vt 0.303957 0.898536
vt 0.483178 0.919102
vt 0.477377 0.805988
vt 0.474193 0.900420
vt 0.194802 0.596676
vt 0.190635 0.669677
vt 0.487068 0.950825
vt 0.477377 0.952571
vt 0.982689 0.849789
vt 0.961901 0.863285
vt 0.920302 0.819632
vt 0.933052 0.868578
vt 0.944959 0.987508
vt 0.940038 0.982989
vt 0.946330 0.953338
vt 0.961212 0.956829
vt 0.951539 0.993653
vt 0.977910 0.962561
vt 0.931679 0.981375
vt 0.928839 0.954222
vt 0.912141 0.909054
vt 0.935156 0.905572
vt 0.992470 0.906228
vt 0.967119 0.908013
vt 0.910012 0.871424
vt 0.110996 0.835497
vt 0.107181 0.889506
vt 0.040519 0.886346
vt 0.048871 0.833196
vt 0.119743 0.791190
vt 0.127436 0.755436
vt 0.141202 0.791088
vt 0.116393 0.909298
vt 0.117361 0.993207
vt 0.064217 0.989962
vt 0.039687 0.902968
vt 0.031479 0.638040
vt 0.015837 0.542144
vt 0.659641 0.863537
vt 0.627153 0.877363
vt 0.627760 0.832926
vt 0.631396 0.926386
vt 0.609940 0.991118
vt 0.757913 0.937566
vt 0.756455 0.878727
vt 0.154208 0.895586
vt 0.086352 0.725063
vt 0.129446 0.703956
vt 0.154324 0.877590
vt 0.156058 0.845770
vt 0.161046 0.807847
vt 0.143317 0.843445
vt 0.068396 0.786753
vt 0.718166 0.985817
vt 0.676450 0.965223
vt 0.691350 0.913094
vt 0.727280 0.936932
vt 0.752349 0.829031
vt 0.722345 0.879111
vt 0.721860 0.845443
vt 0.753544 0.994499
vt 0.697257 0.871989
vt 0.640029 0.976655
vt 0.009485 0.982862
vt 0.676011 0.917080
vt 0.190635 0.669677
vt 0.194802 0.596675
vt 0.672787 0.948877
vt 0.982689 0.849789
vt 0.920302 0.819632
vt 0.944959 0.987508
vt 0.951540 0.993653
vt 0.977910 0.962561
vt 0.928839 0.954222
vt 0.935156 0.905572
vt 0.992470 0.906228
vt 0.910012 0.871424
s 1
usemtl secretary_mat
f 22/1/1 46/2/2 34/3/3 32/4/4
f 35/5/5 31/6/6 29/7/7 38/8/8 37/9/9
f 24/10/10 3/11/11 6/12/12 25/13/13
f 36/14/14 2/15/15 9/16/16 8/17/17
f 12/18/18 9/16/16 2/15/15 23/19/19
f 54/20/20 14/21/21 13/22/22
f 13/22/22 14/21/21 16/23/23 15/24/24
f 13/22/22 15/24/24 18/25/25 17/26/26
f 18/25/25 20/27/27 40/28/28
f 43/29/29 41/30/30 21/31/31 39/32/32
f 12/18/18 23/19/19 1/33/33
f 5/34/34 45/35/35 24/10/10 25/13/13 7/36/36
f 2/37/15 37/9/9 23/38/19
f 4/39/37 27/40/38 44/41/39 33/42/40
f 26/43/41 28/44/42 27/40/38 4/39/37
f 29/7/7 31/6/6 28/44/42 26/43/41
f 28/44/42 31/6/6 30/45/43 27/40/38
f 32/4/4 34/3/3 3/11/11 24/10/10
f 33/42/40 44/41/39 45/35/35 5/34/34
f 46/2/2 22/1/1 35/5/5 36/46/14
f 22/1/1 30/45/43 31/6/6 35/5/5
f 46/47/2 36/14/14 8/17/17
f 37/9/9 38/8/8 1/48/33 23/38/19
f 19/49/44 42/50/45 52/51/46 53/52/47
f 25/53/13 6/54/12 11/55/48 39/32/32
f 42/50/45 43/29/29 39/32/32 11/55/48
f 7/56/36 25/53/13 39/32/32 21/31/31
f 19/49/44 40/57/28 43/29/29 42/50/45
f 40/57/28 20/58/27 41/30/30 43/29/29
f 51/59/49 52/51/46 42/50/45 11/55/48
f 36/46/14 35/5/5 37/9/9
f 2/37/15 36/46/14 37/9/9
f 44/41/39 27/40/38 30/45/43
f 45/35/35 44/41/39 32/4/4 24/10/10
f 30/45/43 22/1/1 32/4/4 44/41/39
f 17/26/26 18/25/25 40/28/28
f 19/60/44 17/26/26 40/28/28
f 47/61/50 49/62/51 48/63/52
f 48/63/52 49/62/51 8/64/17
f 8/65/17 49/66/51 47/67/50
f 48/63/52 50/68/53 34/69/3 47/61/50
f 8/64/17 10/70/54 48/63/52
f 47/67/50 34/71/3 8/65/17
f 46/47/2 8/17/17 34/72/3
f 10/70/54 52/73/46 51/74/49 50/68/53
f 6/54/12 51/59/49 11/55/48
f 6/12/12 3/11/11 51/75/49
f 48/63/52 10/70/54 50/68/53
f 3/76/11 34/69/3 50/68/53
f 3/76/11 50/68/53 51/74/49
f 55/77/55 54/20/20 13/22/22 17/26/26
f 10/70/54 8/64/17 54/78/20 55/79/55
f 8/17/17 9/16/16 14/80/21 54/81/20
f 55/77/55 17/26/26 19/60/44 53/82/47
f 10/70/54 55/79/55 53/83/47 52/73/46
f 66/84/56 68/85/57 60/86/58
f 68/85/57 63/87/59 60/86/58
f 58/88/60 56/89/61 64/90/62 67/91/63
f 59/92/64 58/88/60 67/91/63 65/93/65
f 56/89/61 57/94/66 62/95/67 64/90/62
f 69/96/68 70/97/69 64/90/62 62/95/67
f 71/98/70 72/99/71 68/85/57 66/84/56
f 72/99/71 70/97/69 63/87/59 68/85/57
f 63/87/59 61/100/72 60/86/58
f 67/91/63 64/90/62 70/97/69 72/99/71
f 65/93/65 67/91/63 72/99/71 71/98/70
f 61/100/72 63/87/59 70/97/69 69/96/68
f 84/101/73 92/102/74 93/103/75 103/104/76
f 94/105/77 96/106/78 38/8/8 29/7/7 91/107/79
f 86/108/80 87/109/81 75/110/82 74/111/83
f 95/112/84 76/17/85 77/16/86 73/15/87
f 12/18/18 85/113/88 73/15/87 77/16/86
f 111/114/89 80/115/90 81/116/91
f 80/115/90 15/24/24 16/23/23 81/116/91
f 80/115/90 82/117/92 18/25/25 15/24/24
f 18/25/25 98/118/93 20/27/27
f 100/119/94 97/120/95 21/31/31 41/30/30
f 12/18/18 1/33/33 85/113/88
f 5/34/34 7/36/36 87/109/81 86/108/80 102/121/96
f 73/122/87 85/123/88 96/106/78
f 4/39/37 33/42/40 101/124/97 88/125/98
f 26/43/41 4/39/37 88/125/98 89/126/99
f 29/7/7 26/43/41 89/126/99 91/107/79
f 89/126/99 88/125/98 90/127/100 91/107/79
f 92/102/74 86/108/80 74/111/83 93/103/75
f 33/42/40 5/34/34 102/121/96 101/124/97
f 103/104/76 95/128/84 94/105/77 84/101/73
f 84/101/73 94/105/77 91/107/79 90/127/100
f 103/47/76 76/17/85 95/112/84
f 96/106/78 85/123/88 1/48/33 38/8/8
f 83/129/101 110/130/102 109/131/103 99/132/104
f 87/133/81 97/120/95 79/134/105 75/135/82
f 99/132/104 79/134/105 97/120/95 100/119/94
f 7/56/36 21/31/31 97/120/95 87/133/81
f 83/129/101 99/132/104 100/119/94 98/136/93
f 98/136/93 100/119/94 41/30/30 20/58/27
f 108/137/106 79/134/105 99/132/104 109/131/103
f 95/128/84 96/106/78 94/105/77
f 73/122/87 96/106/78 95/128/84
f 101/124/97 90/127/100 88/125/98
f 102/121/96 86/108/80 92/102/74 101/124/97
f 90/127/100 101/124/97 92/102/74 84/101/73
f 82/117/92 98/118/93 18/25/25
f 83/138/101 98/118/93 82/117/92
f 104/61/107 105/63/108 106/62/109
f 105/63/108 76/64/85 106/62/109
f 76/65/85 104/67/107 106/66/109
f 105/63/108 104/61/107 93/69/75 107/68/110
f 76/64/85 105/63/108 78/70/111
f 104/67/107 76/65/85 93/71/75
f 103/47/76 93/72/75 76/17/85
f 78/70/111 107/68/110 108/74/106 109/73/103
f 75/135/82 79/134/105 108/137/106
f 75/110/82 108/139/106 74/111/83
f 105/63/108 107/68/110 78/70/111
f 74/76/83 107/68/110 93/69/75
f 74/76/83 108/74/106 107/68/110
f 112/140/112 82/117/92 80/115/90 111/114/89
f 78/70/111 112/79/112 111/78/89 76/64/85
f 76/17/85 111/141/89 81/142/91 77/16/86
f 112/140/112 110/143/102 83/138/101 82/117/92
f 78/70/111 109/73/103 110/83/102 112/79/112
f 66/144/56 60/145/58 118/85/113
f 118/85/113 60/145/58 115/87/114
f 114/146/115 117/91/116 116/90/117 113/89/118
f 59/147/64 65/148/65 117/91/116 114/146/115
f 113/89/118 116/90/117 62/149/67 57/94/66
f 69/96/68 62/149/67 116/90/117 119/150/119
f 71/151/70 66/144/56 118/85/113 120/99/120
f 120/99/120 118/85/113 115/87/114 119/150/119
f 115/87/114 60/145/58 61/152/72
f 117/91/116 120/99/120 119/150/119 116/90/117
f 65/148/65 71/151/70 120/99/120 117/91/116
f 61/152/72 69/96/68 119/150/119 115/87/114
