# Blender 5.0.1
# www.blender.org
mtllib man_right_foot.mtl
o male_player.001
v -0.170429 0.106670 -0.025227
v -0.108705 0.090834 -0.094400
v -0.129623 0.087808 -0.166379
v -0.207073 0.086875 -0.165243
v -0.248655 0.094390 -0.094400
v -0.146925 0.513118 -0.006055
v -0.082893 0.508200 -0.053573
v -0.114365 0.478433 -0.165867
v -0.191322 0.487979 -0.164513
v -0.222752 0.531802 -0.051325
v -0.096833 0.909715 0.075333
v -0.023386 0.869393 -0.022852
v -0.060002 0.923390 -0.155299
v -0.173640 0.927253 -0.143836
v -0.207232 0.926607 -0.024881
v -0.212323 0.377064 -0.172124
v -0.236364 0.364606 -0.077046
v -0.080202 0.352832 -0.079384
v -0.105555 0.369322 -0.173688
v -0.165782 0.355512 -0.037518
v -0.213074 0.715125 -0.036058
v -0.127187 0.702058 0.057931
v -0.075161 0.720416 -0.144212
v -0.179213 0.733476 -0.143328
v -0.043008 0.695555 -0.024002
v -0.085499 0.457747 -0.068555
v -0.230534 0.473986 -0.066428
v -0.157521 0.463847 -0.022997
v -0.136017 0.565069 0.003047
v -0.200573 0.592427 -0.140193
v -0.066113 0.559079 -0.053291
v -0.223623 0.583762 -0.051345
v -0.098251 0.578682 -0.141287
v -0.113152 0.000670 0.116549
v -0.242593 0.000669 0.089036
v -0.139772 0.000669 -0.154578
v -0.208953 0.000669 -0.154579
v -0.109684 0.000776 0.028291
v -0.242159 0.002614 0.031133
v -0.126912 0.030566 0.099479
v -0.214212 0.035829 0.087007
v -0.139772 0.055876 -0.154579
v -0.210163 0.055822 -0.154513
v -0.123769 0.055796 0.015661
v -0.213066 0.051638 0.018962
v -0.230423 0.000669 -0.046860
v -0.118301 0.000670 -0.046860
v -0.232998 0.000669 -0.108861
v -0.115726 0.000670 -0.108861
v -0.107504 0.044132 -0.040946
v -0.118163 0.046689 -0.117110
v -0.232090 0.042813 -0.035531
v -0.216998 0.037416 -0.122020
v -0.109916 0.219013 -0.087731
v -0.182709 0.220397 -0.168323
v -0.174932 0.040801 0.105720
v -0.177872 0.000669 0.121071
v -0.173909 0.220893 -0.050671
v -0.127032 0.216410 -0.168738
v -0.237199 0.225482 -0.087057
v -0.126412 0.096193 -0.096361
v -0.172536 0.102436 -0.039248
v -0.140332 0.098624 -0.153362
v -0.198365 0.097070 -0.151916
v -0.220163 0.100146 -0.095648
v -0.109043 0.033894 0.019459
v -0.173194 0.061861 0.019977
vn -0.9484 0.0493 0.3133
vn -0.9140 -0.0247 0.4051
vn -0.5396 0.1593 -0.8267
vn 0.5660 0.1069 -0.8174
vn 0.8992 -0.2509 0.3584
vn 0.9367 -0.0866 0.3393
vn -0.0316 -0.1951 0.9803
vn 0.0144 -0.2164 0.9762
vn -0.9537 -0.0198 0.3000
vn -0.6577 0.0909 -0.7477
vn -0.0160 -0.1807 0.9834
vn -0.0696 -0.0745 0.9948
vn -0.9688 0.0272 0.2463
vn -0.9603 0.0073 0.2787
vn -0.5995 0.0296 -0.7998
vn -0.6200 0.0050 -0.7846
vn 0.4800 -0.0711 -0.8744
vn 0.5862 -0.0839 -0.8058
vn 0.9456 -0.1939 0.2613
vn 0.9697 -0.1282 0.2079
vn 0.9267 -0.0757 0.3680
vn 0.9224 -0.1058 0.3715
vn -0.0214 -0.1053 0.9942
vn -0.0125 -0.0097 0.9999
vn -0.4696 -0.0031 -0.8829
vn -0.6080 0.0373 -0.7930
vn 0.6227 -0.0073 -0.7825
vn 0.5930 -0.0676 -0.8023
vn -0.9442 -0.0230 0.3285
vn -0.9688 0.0184 0.2470
vn 0.6118 -0.0273 -0.7906
vn 0.9367 -0.2857 0.2024
vn 0.0359 -0.2271 0.9732
vn 0.7120 -0.6769 -0.1870
vn -0.7871 -0.5982 -0.1502
vn -0.4547 -0.5922 -0.6652
vn 0.4027 -0.6102 -0.6823
vn 0.6286 -0.4532 0.6321
vn -0.1544 -0.4898 0.8580
vn -0.8069 -0.3919 0.4419
vn -0.8653 -0.4986 0.0515
vn 0.7442 -0.6670 0.0368
vn 0.5700 0.1167 -0.8133
vn 0.5020 0.0175 -0.8647
vn -0.6617 0.1638 -0.7317
vn -0.5825 0.1083 -0.8056
vn -0.0945 0.7495 0.6552
vn -0.0340 0.9082 0.4172
vn -0.6553 0.7164 0.2393
vn 0.5548 0.6420 0.5292
vn 0.9844 0.1757 0.0104
vn 0.9057 0.4227 -0.0311
vn 0.5737 0.7707 0.2772
vn -0.9637 0.1195 -0.2386
vn 0.9530 0.2898 0.0885
vn -0.5427 0.7037 0.4585
vn -0.9531 0.2947 -0.0683
vn -0.9562 0.2900 0.0398
vn 0.9560 0.0604 -0.2870
vn -0.0169 0.9042 0.4267
vn -0.7541 -0.6563 -0.0256
vn 0.6404 -0.7672 -0.0350
vn 0.0289 -0.4269 0.9038
vn -0.8298 -0.5355 0.1574
vn 0.7446 -0.6121 0.2663
vn 0.4900 -0.6109 -0.6218
vn -0.4355 -0.6150 -0.6574
vt 0.327200 0.250120
vt 0.330796 0.286812
vt 0.283832 0.247196
vt 0.243955 0.242583
vt 0.194790 0.265859
vt 0.199276 0.234175
vt 0.106611 0.253563
vt 0.100719 0.287940
vt 0.137911 0.292741
vt 0.148572 0.257576
vt 0.330008 0.319794
vt 0.282274 0.318199
vt 0.060249 0.245387
vt 0.057633 0.278700
vt 0.088214 0.413446
vt 0.077296 0.539200
vt 0.161594 0.541993
vt 0.157431 0.410249
vt 0.293643 0.417421
vt 0.301754 0.539159
vt 0.243727 0.536538
vt 0.240005 0.408098
vt 0.026689 0.396031
vt 0.007247 0.505147
vt 0.345730 0.405063
vt 0.362357 0.537458
vt 0.176226 0.491561
vt 0.179577 0.383877
vt 0.071305 0.085262
vt 0.054893 0.174151
vt 0.111613 0.179762
vt 0.107936 0.087985
vt 0.274358 0.092005
vt 0.282603 0.186114
vt 0.240797 0.178996
vt 0.240185 0.089596
vt 0.160728 0.183163
vt 0.142128 0.089469
vt 0.196860 0.164038
vt 0.212743 0.083299
vt 0.313835 0.087629
vt 0.325027 0.178554
vt 0.242778 0.310626
vt 0.193944 0.298614
vt 0.043609 0.307684
vt 0.095143 0.322422
vt 0.141768 0.325881
vt 0.931936 0.136954
vt 0.978210 0.137428
vt 0.968851 0.111483
vt 0.941553 0.111204
vt 0.930285 0.264385
vt 0.955810 0.267203
vt 0.981438 0.249352
vt 0.981438 0.215007
vt 0.929178 0.214472
vt 0.830033 0.123766
vt 0.825497 0.100208
vt 0.784999 0.107830
vt 0.794956 0.133144
vt 0.729242 0.025030
vt 0.724326 0.082011
vt 0.760443 0.079667
vt 0.781762 0.076540
vt 0.824693 0.070295
vt 0.666893 0.010786
vt 0.678073 0.027747
vt 0.730273 0.007510
vt 0.891260 0.096542
vt 0.864832 0.125126
vt 0.922954 0.100297
vt 0.962250 0.027805
vt 0.975651 0.061886
vt 0.989526 0.038518
vt 0.929288 0.091137
vt 0.975218 0.096368
vt 0.787676 0.007486
vt 0.789937 0.025816
vt 0.844405 0.041262
vt 0.836673 0.007967
vt 0.930867 0.061302
vt 0.892167 0.030365
vt 0.849799 0.095355
vt 0.726709 0.136299
vt 0.776759 0.152019
vt 0.977019 0.172471
vt 0.932777 0.172018
vt 0.107059 0.004208
vt 0.139979 0.004566
vt 0.857427 0.069919
vt 0.894620 0.073389
vt 0.898226 0.007101
vt 0.948395 0.005819
vt 0.989972 0.007409
vt 0.677658 0.156988
vt 0.679558 0.084917
vt 0.073514 0.003727
vt 0.236064 0.006640
vt 0.206961 0.004193
vt 0.770827 0.032963
vt 0.782415 0.015488
vt 0.269468 0.005029
vt 0.309915 0.001801
vt 0.938681 0.077554
vt 0.989378 0.085858
vt 0.314899 0.046225
vt 0.371217 0.051565
vt 0.322182 0.008448
vt 0.341738 0.070414
vt 0.371217 0.007698
s 1
usemtl hero
f 27/1/1 10/2/2 9/3/3
f 8/4/4 7/5/5 26/6/6
f 28/7/7 6/8/8 10/9/2 27/10/1
f 32/11/9 30/12/10 10/2/2
f 26/13/6 7/14/5 6/8/8 28/7/7
f 22/15/11 11/16/12 15/17/13 21/18/14
f 24/19/15 14/20/16 13/21/17 23/22/18
f 25/23/19 12/24/20 11/16/12 22/15/11
f 21/25/14 15/26/13 14/20/16 24/19/15
f 23/22/18 13/21/17 12/27/20 25/28/19
f 54/29/21 18/30/22 20/31/23 58/32/24
f 55/33/25 16/34/26 19/35/27 59/36/28
f 58/32/24 20/31/23 17/37/29 60/38/30
f 59/36/28 19/35/27 18/39/22 54/40/21
f 60/41/30 17/42/29 16/34/26 55/33/25
f 33/43/31 23/22/18 25/28/19 31/44/32
f 32/11/9 21/25/14 24/19/15 30/12/10
f 31/45/32 25/23/19 22/15/11 29/46/33
f 30/12/10 24/19/15 23/22/18 33/43/31
f 29/46/33 22/15/11 21/18/14 32/47/9
f 18/30/22 26/13/6 28/7/7 20/31/23
f 16/34/26 9/3/3 8/4/4 19/35/27
f 20/31/23 28/7/7 27/10/1 17/37/29
f 19/35/27 8/4/4 26/6/6 18/39/22
f 17/42/29 27/1/1 9/3/3 16/34/26
f 6/8/8 29/46/33 32/47/9 10/9/2
f 9/3/3 30/12/10 33/43/31 8/4/4
f 7/14/5 31/45/32 29/46/33 6/8/8
f 10/2/2 30/12/10 9/3/3
f 7/5/5 33/43/31 31/44/32
f 8/4/4 33/43/31 7/5/5
f 49/48/34 48/49/35 37/50/36 36/51/37
f 34/52/38 57/53/39 35/54/40 39/55/41 38/56/42
f 63/57/43 42/58/44 43/59/45 64/60/46
f 56/61/47 67/62/48 45/63/49
f 37/64/36 43/59/45 42/58/44 36/65/37
f 34/66/38 40/67/50 56/61/47 57/68/39
f 50/69/51 61/70/52 44/71/53
f 53/72/54 64/73/46 43/74/45
f 66/75/55 44/71/53 40/76/50
f 35/77/40 41/78/56 45/79/49 39/80/41
f 45/79/49 65/81/57 52/82/58
f 51/83/59 63/57/43 61/70/52 50/69/51
f 45/63/49 62/84/60 65/85/57
f 38/56/42 39/55/41 46/86/61 47/87/62
f 42/58/44 63/57/43 51/83/59
f 52/82/58 65/81/57 64/73/46 53/72/54
f 1/88/63 58/32/24 60/38/30 5/89/64
f 47/87/62 46/86/61 48/49/35 49/48/34
f 49/90/34 51/83/59 50/69/51 47/91/62
f 50/69/51 44/71/53 66/75/55
f 36/65/37 42/58/44 51/83/59 49/90/34
f 46/92/61 52/82/58 53/72/54 48/93/35
f 39/80/41 45/79/49 52/82/58 46/92/61
f 48/93/35 53/72/54 43/74/45 37/94/36
f 61/95/52 62/84/60 44/96/53
f 62/84/60 45/63/49 67/62/48
f 2/97/65 54/29/21 58/32/24 1/88/63
f 3/98/66 59/36/28 54/40/21 2/99/65
f 45/63/49 41/100/56 56/61/47
f 56/61/47 41/100/56 35/101/40 57/68/39
f 4/102/67 55/33/25 59/36/28 3/98/66
f 5/103/64 60/41/30 55/33/25 4/102/67
f 47/91/62 50/69/51 66/75/55 38/104/42
f 38/104/42 66/75/55 40/76/50 34/105/38
f 44/96/53 62/84/60 67/62/48
f 40/67/50 44/96/53 67/62/48 56/61/47
f 4/106/67 2/107/65 5/108/64
f 3/109/66 2/107/65 4/106/67
f 2/107/65 1/110/63 5/108/64
