# Blender 5.0.1
# www.blender.org
mtllib man_head.mtl
o male_player.001
v 0.018534 1.827122 0.108710
v 0.050800 1.831129 0.098449
v 0.053643 1.792314 0.104003
v 0.017414 1.794306 0.120063
v 0.065110 1.812336 0.064833
v 0.068388 1.773579 0.063640
v 0.047586 1.781734 0.097403
v 0.018758 1.780653 0.105418
v 0.049816 1.758781 0.094092
v 0.015984 1.764668 0.103568
v 0.004977 1.768950 0.107914
v 0.067804 1.734363 0.054466
v 0.049758 1.726981 0.095035
v 0.056228 1.702211 0.057220
v 0.041790 1.699050 0.089952
v 0.020745 1.725550 0.104507
v 0.026275 1.664955 0.065485
v 0.020155 1.665971 0.088347
v 0.008790 1.726924 0.133312
v 0.025136 1.675220 0.026914
v 0.061422 1.700752 0.005171
v 0.068887 1.730964 0.013640
v 0.076434 1.785707 0.014213
v 0.090426 1.741358 -0.018419
v 0.095932 1.780789 -0.024330
v 0.074213 1.736475 -0.026723
v 0.079700 1.787588 -0.034797
v 0.023381 1.861327 0.096131
v 0.052144 1.844865 0.089238
v 0.044676 1.884446 0.108572
v 0.080133 1.849700 0.091023
v 0.033109 1.897998 -0.081007
v 0.066495 1.883280 -0.066634
v 0.032664 1.829805 -0.102937
v 0.060937 1.825076 -0.080354
v 0.023147 1.758368 -0.101669
v 0.049438 1.759892 -0.080969
v 0.049438 1.713645 -0.055043
v 0.086532 1.821459 -0.042345
v 0.083112 1.810841 0.057936
v 0.089182 1.854514 -0.041659
v 0.074555 1.879358 0.007995
v 0.093775 1.845371 0.014645
v 0.035588 1.902777 0.005841
v 0.081862 1.798352 0.018635
v 0.076682 1.776523 0.033347
v -0.018335 1.827122 0.108710
v -0.050600 1.831129 0.098449
v -0.053444 1.792314 0.104003
v -0.017214 1.794306 0.120063
v -0.087049 1.803545 0.067319
v -0.068189 1.773579 0.063640
v -0.047387 1.781734 0.097403
v -0.018558 1.780653 0.105418
v -0.049616 1.758781 0.094092
v -0.015784 1.764668 0.103568
v -0.004778 1.768950 0.107914
v -0.067604 1.734363 0.054466
v -0.049559 1.726981 0.095035
v -0.056028 1.702211 0.057220
v -0.041590 1.699050 0.089952
v -0.020546 1.725550 0.104507
v -0.026076 1.664955 0.065485
v -0.019956 1.665971 0.088347
v 0.000100 1.661019 0.066526
v 0.000100 1.663594 0.088185
v 0.000100 1.702149 0.103713
v 0.000100 1.721322 0.109128
v -0.008591 1.726924 0.133312
v 0.000100 1.725846 0.134434
v -0.024937 1.675220 0.026914
v 0.000100 1.668871 0.032404
v -0.061223 1.700752 0.005171
v 0.000100 1.824584 0.114944
v 0.000100 1.792673 0.120201
v 0.000100 1.771193 0.112308
v -0.068688 1.730964 0.013640
v -0.076235 1.785707 0.014213
v 0.000100 1.669298 0.099320
v -0.090227 1.741358 -0.018419
v -0.095732 1.780789 -0.024330
v -0.074014 1.736475 -0.026723
v -0.079501 1.787588 -0.034797
v -0.042616 1.846527 0.116526
v -0.065375 1.841054 0.095915
v -0.011477 1.851895 0.116879
v -0.035926 1.878032 0.109872
v -0.075046 1.854026 0.092516
v -0.000934 1.862066 0.116317
v -0.032910 1.897998 -0.081007
v -0.066295 1.883280 -0.066634
v 0.000100 1.901845 -0.085720
v -0.032465 1.829805 -0.102937
v -0.060738 1.825076 -0.080354
v 0.000100 1.832531 -0.111284
v -0.022948 1.758368 -0.101669
v -0.049238 1.759892 -0.080969
v 0.000100 1.761392 -0.107648
v -0.049238 1.713645 -0.055043
v -0.086332 1.821459 -0.042345
v 0.000100 1.715428 -0.079072
v -0.084111 1.824992 0.064977
v -0.088982 1.854514 -0.041659
v -0.074356 1.879358 0.007995
v 0.000100 1.910187 0.010317
v -0.093576 1.845371 0.014645
v -0.035388 1.902777 0.005841
v -0.081662 1.798352 0.018635
v -0.076483 1.776523 0.033347
vn 0.2796 -0.1396 0.9499
vn 0.6614 -0.2156 0.7184
vn 0.6610 0.2397 0.7111
vn 0.3185 0.2479 0.9149
vn 0.9440 -0.0406 0.3275
vn 0.7106 -0.2594 0.6540
vn 0.3689 -0.4324 0.8228
vn 0.4966 -0.4446 0.7454
vn 0.5424 -0.0391 0.8392
vn 0.6445 -0.0339 0.7639
vn 0.5318 -0.0405 0.8459
vn 0.6649 -0.1573 0.7302
vn 0.9505 -0.1956 0.2413
vn 0.6602 -0.3834 0.6459
vn 0.8575 -0.4870 0.1656
vn 0.4595 -0.2134 0.8622
vn 0.4429 -0.7203 0.5338
vn 0.4994 -0.8657 0.0347
vn -0.0000 -0.9606 0.2780
vn -0.0000 -0.9977 -0.0680
vn -0.0000 -0.7635 0.6458
vn -0.0000 -0.2521 0.9677
vn -0.0000 -0.5213 0.8534
vn 0.6105 -0.3094 0.7291
vn -0.0000 -0.4924 0.8704
vn -0.0000 -0.9697 -0.2442
vn 0.5009 -0.8567 -0.1232
vn 0.8743 -0.4835 -0.0439
vn 0.1025 0.1484 0.9836
vn -0.0000 -0.1185 0.9930
vn -0.0000 -0.0605 0.9982
vn 0.9414 -0.3212 0.1029
vn 0.9785 -0.1806 0.0993
vn 0.9857 -0.1535 0.0698
vn 0.9671 -0.2509 -0.0419
vn 0.8431 -0.5013 -0.1947
vn 0.9074 0.3381 -0.2497
vn 0.7766 -0.4716 -0.4176
vn 0.9045 -0.0537 -0.4230
vn 0.3533 -0.2612 0.8983
vn 0.0886 -0.0293 0.9956
vn 0.3322 -0.2003 0.9217
vn 0.2954 0.5145 0.8050
vn 0.2978 0.1304 0.9457
vn 0.6958 0.0299 0.7176
vn 0.3561 0.9329 0.0535
vn -0.0123 0.9951 0.0976
vn 0.7123 0.6952 0.0966
vn -0.0000 0.7846 -0.6201
vn 0.3945 0.7259 -0.5635
vn 0.4187 0.0976 -0.9029
vn -0.0000 0.1458 -0.9893
vn 0.7165 0.5394 -0.4424
vn 0.7173 -0.0150 -0.6966
vn 0.4112 -0.3108 -0.8569
vn -0.0000 -0.2955 -0.9553
vn 0.7190 -0.2379 -0.6531
vn 0.7430 -0.4042 -0.5334
vn -0.0000 -0.5859 -0.8104
vn 0.9358 -0.1507 -0.3186
vn 0.7706 -0.3456 0.5355
vn 0.9920 0.1182 0.0449
vn 0.9433 0.1965 -0.2677
vn -0.3470 0.9345 0.0787
vn -0.2229 0.7006 0.6779
vn -0.2796 -0.1396 0.9499
vn -0.2314 -0.0724 0.9702
vn -0.4706 -0.3291 0.8187
vn -0.5473 -0.2916 0.7845
vn -0.9680 -0.1043 0.2281
vn -0.8939 -0.2366 0.3807
vn -0.4966 -0.4446 0.7454
vn -0.3689 -0.4324 0.8228
vn -0.6445 -0.0339 0.7639
vn -0.5424 -0.0391 0.8392
vn -0.5318 -0.0405 0.8459
vn -0.9505 -0.1956 0.2413
vn -0.6649 -0.1573 0.7302
vn -0.8575 -0.4870 0.1656
vn -0.6602 -0.3834 0.6459
vn -0.4595 -0.2134 0.8622
vn -0.4994 -0.8657 0.0347
vn -0.4429 -0.7203 0.5338
vn -0.6105 -0.3094 0.7291
vn -0.5009 -0.8567 -0.1232
vn -0.8743 -0.4835 -0.0439
vn -0.9414 -0.3212 0.1029
vn -0.9747 -0.2224 0.0199
vn -0.9857 -0.1535 0.0698
vn -0.9671 -0.2509 -0.0419
vn -0.9074 0.3381 -0.2497
vn -0.8431 -0.5013 -0.1947
vn -0.7766 -0.4716 -0.4176
vn -0.9045 -0.0537 -0.4230
vn -0.3619 -0.1761 0.9154
vn -0.5851 -0.2292 0.7779
vn -0.7833 0.3307 0.5265
vn -0.7037 0.7044 0.0929
vn -0.4187 0.0976 -0.9029
vn -0.3945 0.7259 -0.5635
vn -0.7173 -0.0150 -0.6966
vn -0.7165 0.5394 -0.4424
vn -0.4112 -0.3108 -0.8569
vn -0.7190 -0.2379 -0.6531
vn -0.7430 -0.4042 -0.5334
vn -0.9358 -0.1507 -0.3186
vn -0.9885 0.1405 0.0552
vn -0.9692 0.1056 0.2226
vn -0.9433 0.1965 -0.2677
vt 0.698870 0.847676
vt 0.747380 0.846253
vt 0.743573 0.892732
vt 0.700370 0.887367
vt 0.767123 0.825038
vt 0.771194 0.886443
vt 0.700669 0.831465
vt 0.739270 0.832590
vt 0.696955 0.813107
vt 0.742255 0.805224
vt 0.682218 0.818840
vt 0.742178 0.766456
vt 0.766341 0.776340
vt 0.731509 0.729057
vt 0.750841 0.733289
vt 0.703331 0.764540
vt 0.702541 0.684765
vt 0.710735 0.683405
vt 0.675687 0.681582
vt 0.675687 0.678134
vt 0.675687 0.758877
vt 0.675687 0.733205
vt 0.675687 0.689220
vt 0.687323 0.774323
vt 0.675687 0.772880
vt 0.694466 0.669333
vt 0.671708 0.668427
vt 0.671708 0.629173
vt 0.703913 0.628924
vt 0.736812 0.670137
vt 0.755285 0.628711
vt 0.675687 0.883969
vt 0.675687 0.844677
vt 0.675687 0.821533
vt 0.807491 0.762281
vt 0.804771 0.727708
vt 0.858451 0.728463
vt 0.848636 0.759364
vt 0.829172 0.806758
vt 0.849523 0.819018
vt 0.845557 0.825544
vt 0.883555 0.776615
vt 0.888795 0.815292
vt 0.897872 0.768139
vt 0.903409 0.818532
vt 0.706861 0.933167
vt 0.675687 0.933026
vt 0.741749 0.924836
vt 0.732934 0.965117
vt 0.675687 0.982551
vt 0.770196 0.964693
vt 0.881092 0.933798
vt 0.889909 0.965937
vt 0.782183 0.947536
vt 0.797031 0.916867
vt 0.866833 0.897595
vt 0.964703 0.922724
vt 0.942928 0.904758
vt 0.963188 0.852107
vt 0.992759 0.860301
vt 0.920907 0.886858
vt 0.933729 0.845347
vt 0.973034 0.790471
vt 0.995311 0.792371
vt 0.943292 0.790886
vt 0.925573 0.740748
vt 0.983298 0.742176
vt 0.898241 0.842786
vt 0.814802 0.866210
vt 0.855269 0.866726
vt 0.898522 0.867336
vt 0.788562 0.907618
vt 0.797345 0.799424
vt 0.808807 0.846276
vt 0.652504 0.847676
vt 0.651004 0.887367
vt 0.607801 0.892732
vt 0.603994 0.846253
vt 0.580180 0.886443
vt 0.584251 0.825038
vt 0.612104 0.832590
vt 0.650705 0.831465
vt 0.609119 0.805224
vt 0.654419 0.813107
vt 0.669156 0.818840
vt 0.585033 0.776340
vt 0.609196 0.766456
vt 0.600533 0.733289
vt 0.619865 0.729057
vt 0.648043 0.764540
vt 0.640639 0.683405
vt 0.648833 0.684765
vt 0.664051 0.774323
vt 0.648951 0.669333
vt 0.639503 0.628924
vt 0.606604 0.670137
vt 0.588131 0.628711
vt 0.644513 0.933167
vt 0.609625 0.924836
vt 0.618440 0.965117
vt 0.581178 0.964693
vt 0.789078 0.990492
vt 0.562812 0.907618
s 1
usemtl hero
f 4/1/1 3/2/2 2/3/3 1/4/4
f 2/3/3 3/2/2 6/5/5 5/6/6
f 3/2/2 4/1/1 8/7/7 7/8/8
f 6/5/5 3/2/2 7/8/8
f 7/8/8 8/7/7 10/9/9 9/10/10
f 7/8/8 9/10/10 6/5/5
f 11/11/11 10/9/9 8/7/7 4/1/1
f 6/5/5 9/10/10 13/12/12 12/13/13
f 12/13/13 13/12/12 15/14/14 14/15/15
f 16/16/16 13/12/12 9/10/10 10/9/9
f 13/12/12 16/16/16 15/14/14
f 14/15/15 15/14/14 18/17/17 17/18/18
f 17/18/18 18/17/17 66/19/19 65/20/20
f 15/14/14 16/16/16 68/21/21 67/22/22
f 15/14/14 67/22/22 79/23/23 18/17/17
f 19/24/24 70/25/25 68/21/21
f 68/21/21 16/16/16 19/24/24
f 17/26/18 65/27/20 72/28/26 20/29/27
f 14/30/15 17/26/18 20/29/27 21/31/28
f 4/1/1 1/4/4 74/32/29 75/33/30
f 11/11/11 4/1/1 75/33/30 76/34/31
f 19/24/24 11/11/11 76/34/31 70/25/25
f 11/11/11 19/24/24 16/16/16 10/9/9
f 12/35/13 14/36/15 21/37/28 22/38/32
f 46/39/33 22/38/32 23/40/34
f 23/40/34 45/41/35 46/39/33
f 18/17/17 79/23/23 66/19/19
f 23/40/34 22/38/32 24/42/36 25/43/37
f 24/42/36 22/38/32 26/44/38
f 23/40/34 25/43/37 27/45/39
f 25/43/37 24/42/36 26/44/38 27/45/39
f 74/32/29 1/4/4 28/46/40 86/47/41
f 1/4/4 2/3/3 29/48/42 28/46/40
f 86/47/41 28/46/40 30/49/43 89/50/44
f 28/46/40 29/48/42 31/51/45 30/49/43
f 44/52/46 105/53/47 30/54/43
f 31/55/45 42/56/48 44/52/46
f 92/57/49 32/58/50 34/59/51 95/60/52
f 32/58/50 33/61/53 35/62/54 34/59/51
f 95/60/52 34/59/51 36/63/55 98/64/56
f 34/59/51 35/62/54 37/65/57 36/63/55
f 98/64/56 36/63/55 38/66/58 101/67/59
f 36/63/55 37/65/57 38/66/58
f 21/37/28 38/66/58 26/44/38 22/38/32
f 23/40/34 27/45/39 39/68/60 45/41/35
f 35/62/54 39/68/60 27/45/39 37/65/57
f 26/44/38 38/66/58 37/65/57 27/45/39
f 31/55/45 40/69/61 43/70/62 42/56/48
f 35/62/54 33/61/53 41/71/63 39/68/60
f 31/51/45 29/48/42 40/72/61
f 5/6/6 40/72/61 29/48/42
f 41/71/63 43/70/62 45/41/35 39/68/60
f 29/48/42 2/3/3 5/6/6
f 44/52/46 42/56/48 33/61/53 32/58/50
f 42/56/48 43/70/62 41/71/63 33/61/53
f 105/53/47 44/52/46 32/58/50 92/57/49
f 45/41/35 43/70/62 46/39/33
f 6/73/5 12/35/13 22/38/32 46/39/33
f 30/54/43 31/55/45 44/52/46
f 105/53/47 107/52/64 87/54/65
f 46/39/33 40/69/61 5/74/6
f 6/73/5 46/39/33 5/74/6
f 43/70/62 40/69/61 46/39/33
f 50/75/66 47/76/67 48/77/68 49/78/69
f 48/77/68 51/79/70 52/80/71 49/78/69
f 49/78/69 53/81/72 54/82/73 50/75/66
f 52/80/71 53/81/72 49/78/69
f 53/81/72 55/83/74 56/84/75 54/82/73
f 53/81/72 52/80/71 55/83/74
f 57/85/76 50/75/66 54/82/73 56/84/75
f 52/80/71 58/86/77 59/87/78 55/83/74
f 58/86/77 60/88/79 61/89/80 59/87/78
f 62/90/81 56/84/75 55/83/74 59/87/78
f 59/87/78 61/89/80 62/90/81
f 60/88/79 63/91/82 64/92/83 61/89/80
f 63/91/82 65/20/20 66/19/19 64/92/83
f 61/89/80 67/22/22 68/21/21 62/90/81
f 61/89/80 64/92/83 79/23/23 67/22/22
f 69/93/84 68/21/21 70/25/25
f 68/21/21 69/93/84 62/90/81
f 63/94/82 71/95/85 72/28/26 65/27/20
f 60/96/79 73/97/86 71/95/85 63/94/82
f 50/75/66 75/33/30 74/32/29 47/76/67
f 57/85/76 76/34/31 75/33/30 50/75/66
f 69/93/84 70/25/25 76/34/31 57/85/76
f 57/85/76 56/84/75 62/90/81 69/93/84
f 58/35/77 77/38/87 73/37/86 60/36/79
f 109/39/88 78/40/89 77/38/87
f 78/40/89 109/39/88 108/41/90
f 64/92/83 66/19/19 79/23/23
f 78/40/89 81/43/91 80/42/92 77/38/87
f 80/42/92 82/44/93 77/38/87
f 78/40/89 83/45/94 81/43/91
f 81/43/91 83/45/94 82/44/93 80/42/92
f 74/32/29 86/47/41 84/98/95 47/76/67
f 47/76/67 84/98/95 85/99/96 48/77/68
f 86/47/41 89/50/44 87/100/65 84/98/95
f 84/98/95 87/100/65 88/101/97 85/99/96
f 89/102/44 105/53/47 87/54/65
f 88/55/97 107/52/64 104/56/98
f 92/57/49 95/60/52 93/59/99 90/58/100
f 90/58/100 93/59/99 94/62/101 91/61/102
f 95/60/52 98/64/56 96/63/103 93/59/99
f 93/59/99 96/63/103 97/65/104 94/62/101
f 98/64/56 101/67/59 99/66/105 96/63/103
f 96/63/103 99/66/105 97/65/104
f 73/37/86 77/38/87 82/44/93 99/66/105
f 78/40/89 108/41/90 100/68/106 83/45/94
f 94/62/101 97/65/104 83/45/94 100/68/106
f 82/44/93 83/45/94 97/65/104 99/66/105
f 88/55/97 104/56/98 106/70/107 102/69/108
f 94/62/101 100/68/106 103/71/109 91/61/102
f 88/101/97 102/103/108 85/99/96
f 51/79/70 85/99/96 102/103/108
f 103/71/109 100/68/106 108/41/90 106/70/107
f 85/99/96 51/79/70 48/77/68
f 107/52/64 90/58/100 91/61/102 104/56/98
f 104/56/98 91/61/102 103/71/109 106/70/107
f 105/53/47 92/57/49 90/58/100 107/52/64
f 108/41/90 109/39/88 106/70/107
f 52/73/71 109/39/88 77/38/87 58/35/77
f 87/54/65 107/52/64 88/55/97
f 109/39/88 51/74/70 102/69/108
f 52/73/71 51/74/70 109/39/88
f 106/70/107 109/39/88 102/69/108
f 105/53/47 89/102/44 30/54/43
